<mxfile host="app.diagrams.net" modified="2021-05-26T18:23:14.471Z" agent="5.0 (Macintosh; Intel Mac OS X 10_15_7) AppleWebKit/537.36 (KHTML, like Gecko) Chrome/89.0.4389.90 Safari/537.36" etag="FyfxCly1--U4VI3BLTxJ" version="14.7.2" type="github">
  <diagram id="bbw6iXYJXdLu6hxIXhFQ" name="Page-1">
    <mxGraphModel dx="2946" dy="1980" grid="1" gridSize="10" guides="1" tooltips="1" connect="1" arrows="1" fold="1" page="1" pageScale="1" pageWidth="1169" pageHeight="827" math="0" shadow="0">
      <root>
        <mxCell id="0" />
        <mxCell id="1" parent="0" />
        <mxCell id="4hjpOmQQZ08YqFkU7Iz2-3" value="" style="rounded=0;whiteSpace=wrap;html=1;fillColor=#000000;" vertex="1" parent="1">
          <mxGeometry x="10" y="-80" width="1160" height="1020" as="geometry" />
        </mxCell>
        <mxCell id="4hjpOmQQZ08YqFkU7Iz2-4" value="" style="rounded=1;whiteSpace=wrap;html=1;fillColor=#f4b834;" vertex="1" parent="1">
          <mxGeometry x="70" y="80" width="1040" height="230" as="geometry" />
        </mxCell>
        <mxCell id="4hjpOmQQZ08YqFkU7Iz2-5" value="&lt;font color=&quot;#f4b834&quot; style=&quot;font-size: 26px&quot;&gt;Roster&lt;/font&gt;" style="text;html=1;strokeColor=none;fillColor=none;align=center;verticalAlign=middle;whiteSpace=wrap;rounded=0;" vertex="1" parent="1">
          <mxGeometry x="510" y="30" width="160" height="40" as="geometry" />
        </mxCell>
        <mxCell id="4hjpOmQQZ08YqFkU7Iz2-7" value="" style="rounded=1;whiteSpace=wrap;html=1;fillColor=#000000;" vertex="1" parent="1">
          <mxGeometry x="80" y="90" width="1020" height="210" as="geometry" />
        </mxCell>
        <mxCell id="4hjpOmQQZ08YqFkU7Iz2-8" value="" style="ellipse;whiteSpace=wrap;html=1;aspect=fixed;fillColor=#FFFFFF;" vertex="1" parent="1">
          <mxGeometry x="105" y="110" width="30" height="30" as="geometry" />
        </mxCell>
        <mxCell id="4hjpOmQQZ08YqFkU7Iz2-9" value="&lt;font color=&quot;#ffffff&quot;&gt;Name&lt;/font&gt;" style="text;html=1;strokeColor=none;fillColor=none;align=center;verticalAlign=middle;whiteSpace=wrap;rounded=0;" vertex="1" parent="1">
          <mxGeometry x="100" y="140" width="40" height="20" as="geometry" />
        </mxCell>
        <mxCell id="4hjpOmQQZ08YqFkU7Iz2-10" value="" style="ellipse;whiteSpace=wrap;html=1;aspect=fixed;fillColor=#FFFFFF;" vertex="1" parent="1">
          <mxGeometry x="155" y="110" width="30" height="30" as="geometry" />
        </mxCell>
        <mxCell id="4hjpOmQQZ08YqFkU7Iz2-11" value="&lt;font color=&quot;#ffffff&quot;&gt;Name&lt;/font&gt;" style="text;html=1;strokeColor=none;fillColor=none;align=center;verticalAlign=middle;whiteSpace=wrap;rounded=0;" vertex="1" parent="1">
          <mxGeometry x="150" y="140" width="40" height="20" as="geometry" />
        </mxCell>
        <mxCell id="4hjpOmQQZ08YqFkU7Iz2-12" value="" style="ellipse;whiteSpace=wrap;html=1;aspect=fixed;fillColor=#FFFFFF;" vertex="1" parent="1">
          <mxGeometry x="205" y="110" width="30" height="30" as="geometry" />
        </mxCell>
        <mxCell id="4hjpOmQQZ08YqFkU7Iz2-13" value="&lt;font color=&quot;#ffffff&quot;&gt;Name&lt;/font&gt;" style="text;html=1;strokeColor=none;fillColor=none;align=center;verticalAlign=middle;whiteSpace=wrap;rounded=0;" vertex="1" parent="1">
          <mxGeometry x="200" y="140" width="40" height="20" as="geometry" />
        </mxCell>
        <mxCell id="4hjpOmQQZ08YqFkU7Iz2-14" value="" style="ellipse;whiteSpace=wrap;html=1;aspect=fixed;fillColor=#FFFFFF;" vertex="1" parent="1">
          <mxGeometry x="255" y="110" width="30" height="30" as="geometry" />
        </mxCell>
        <mxCell id="4hjpOmQQZ08YqFkU7Iz2-15" value="&lt;font color=&quot;#ffffff&quot;&gt;Name&lt;/font&gt;" style="text;html=1;strokeColor=none;fillColor=none;align=center;verticalAlign=middle;whiteSpace=wrap;rounded=0;" vertex="1" parent="1">
          <mxGeometry x="250" y="140" width="40" height="20" as="geometry" />
        </mxCell>
        <mxCell id="4hjpOmQQZ08YqFkU7Iz2-16" value="" style="ellipse;whiteSpace=wrap;html=1;aspect=fixed;fillColor=#FFFFFF;" vertex="1" parent="1">
          <mxGeometry x="305" y="110" width="30" height="30" as="geometry" />
        </mxCell>
        <mxCell id="4hjpOmQQZ08YqFkU7Iz2-17" value="&lt;font color=&quot;#ffffff&quot;&gt;Name&lt;/font&gt;" style="text;html=1;strokeColor=none;fillColor=none;align=center;verticalAlign=middle;whiteSpace=wrap;rounded=0;" vertex="1" parent="1">
          <mxGeometry x="300" y="140" width="40" height="20" as="geometry" />
        </mxCell>
        <mxCell id="4hjpOmQQZ08YqFkU7Iz2-18" value="" style="ellipse;whiteSpace=wrap;html=1;aspect=fixed;fillColor=#FFFFFF;" vertex="1" parent="1">
          <mxGeometry x="355" y="110" width="30" height="30" as="geometry" />
        </mxCell>
        <mxCell id="4hjpOmQQZ08YqFkU7Iz2-19" value="&lt;font color=&quot;#ffffff&quot;&gt;Name&lt;/font&gt;" style="text;html=1;strokeColor=none;fillColor=none;align=center;verticalAlign=middle;whiteSpace=wrap;rounded=0;" vertex="1" parent="1">
          <mxGeometry x="350" y="140" width="40" height="20" as="geometry" />
        </mxCell>
        <mxCell id="4hjpOmQQZ08YqFkU7Iz2-20" value="" style="ellipse;whiteSpace=wrap;html=1;aspect=fixed;fillColor=#FFFFFF;" vertex="1" parent="1">
          <mxGeometry x="405" y="110" width="30" height="30" as="geometry" />
        </mxCell>
        <mxCell id="4hjpOmQQZ08YqFkU7Iz2-21" value="&lt;font color=&quot;#ffffff&quot;&gt;Name&lt;/font&gt;" style="text;html=1;strokeColor=none;fillColor=none;align=center;verticalAlign=middle;whiteSpace=wrap;rounded=0;" vertex="1" parent="1">
          <mxGeometry x="400" y="140" width="40" height="20" as="geometry" />
        </mxCell>
        <mxCell id="4hjpOmQQZ08YqFkU7Iz2-22" value="" style="ellipse;whiteSpace=wrap;html=1;aspect=fixed;fillColor=#FFFFFF;" vertex="1" parent="1">
          <mxGeometry x="455" y="110" width="30" height="30" as="geometry" />
        </mxCell>
        <mxCell id="4hjpOmQQZ08YqFkU7Iz2-23" value="&lt;font color=&quot;#ffffff&quot;&gt;Name&lt;/font&gt;" style="text;html=1;strokeColor=none;fillColor=none;align=center;verticalAlign=middle;whiteSpace=wrap;rounded=0;" vertex="1" parent="1">
          <mxGeometry x="450" y="140" width="40" height="20" as="geometry" />
        </mxCell>
        <mxCell id="4hjpOmQQZ08YqFkU7Iz2-24" value="" style="ellipse;whiteSpace=wrap;html=1;aspect=fixed;fillColor=#FFFFFF;" vertex="1" parent="1">
          <mxGeometry x="505" y="110" width="30" height="30" as="geometry" />
        </mxCell>
        <mxCell id="4hjpOmQQZ08YqFkU7Iz2-25" value="&lt;font color=&quot;#ffffff&quot;&gt;Name&lt;/font&gt;" style="text;html=1;strokeColor=none;fillColor=none;align=center;verticalAlign=middle;whiteSpace=wrap;rounded=0;" vertex="1" parent="1">
          <mxGeometry x="500" y="140" width="40" height="20" as="geometry" />
        </mxCell>
        <mxCell id="4hjpOmQQZ08YqFkU7Iz2-26" value="" style="ellipse;whiteSpace=wrap;html=1;aspect=fixed;fillColor=#FFFFFF;" vertex="1" parent="1">
          <mxGeometry x="555" y="110" width="30" height="30" as="geometry" />
        </mxCell>
        <mxCell id="4hjpOmQQZ08YqFkU7Iz2-27" value="&lt;font color=&quot;#ffffff&quot;&gt;Name&lt;/font&gt;" style="text;html=1;strokeColor=none;fillColor=none;align=center;verticalAlign=middle;whiteSpace=wrap;rounded=0;" vertex="1" parent="1">
          <mxGeometry x="550" y="140" width="40" height="20" as="geometry" />
        </mxCell>
        <mxCell id="4hjpOmQQZ08YqFkU7Iz2-28" value="" style="ellipse;whiteSpace=wrap;html=1;aspect=fixed;fillColor=#FFFFFF;" vertex="1" parent="1">
          <mxGeometry x="605" y="110" width="30" height="30" as="geometry" />
        </mxCell>
        <mxCell id="4hjpOmQQZ08YqFkU7Iz2-29" value="&lt;font color=&quot;#ffffff&quot;&gt;Name&lt;/font&gt;" style="text;html=1;strokeColor=none;fillColor=none;align=center;verticalAlign=middle;whiteSpace=wrap;rounded=0;" vertex="1" parent="1">
          <mxGeometry x="600" y="140" width="40" height="20" as="geometry" />
        </mxCell>
        <mxCell id="4hjpOmQQZ08YqFkU7Iz2-30" value="" style="ellipse;whiteSpace=wrap;html=1;aspect=fixed;fillColor=#FFFFFF;" vertex="1" parent="1">
          <mxGeometry x="655" y="110" width="30" height="30" as="geometry" />
        </mxCell>
        <mxCell id="4hjpOmQQZ08YqFkU7Iz2-31" value="&lt;font color=&quot;#ffffff&quot;&gt;Name&lt;/font&gt;" style="text;html=1;strokeColor=none;fillColor=none;align=center;verticalAlign=middle;whiteSpace=wrap;rounded=0;" vertex="1" parent="1">
          <mxGeometry x="650" y="140" width="40" height="20" as="geometry" />
        </mxCell>
        <mxCell id="4hjpOmQQZ08YqFkU7Iz2-32" value="" style="ellipse;whiteSpace=wrap;html=1;aspect=fixed;fillColor=#FFFFFF;" vertex="1" parent="1">
          <mxGeometry x="705" y="110" width="30" height="30" as="geometry" />
        </mxCell>
        <mxCell id="4hjpOmQQZ08YqFkU7Iz2-33" value="&lt;font color=&quot;#ffffff&quot;&gt;Name&lt;/font&gt;" style="text;html=1;strokeColor=none;fillColor=none;align=center;verticalAlign=middle;whiteSpace=wrap;rounded=0;" vertex="1" parent="1">
          <mxGeometry x="700" y="140" width="40" height="20" as="geometry" />
        </mxCell>
        <mxCell id="4hjpOmQQZ08YqFkU7Iz2-34" value="" style="ellipse;whiteSpace=wrap;html=1;aspect=fixed;fillColor=#FFFFFF;" vertex="1" parent="1">
          <mxGeometry x="755" y="110" width="30" height="30" as="geometry" />
        </mxCell>
        <mxCell id="4hjpOmQQZ08YqFkU7Iz2-35" value="&lt;font color=&quot;#ffffff&quot;&gt;Name&lt;/font&gt;" style="text;html=1;strokeColor=none;fillColor=none;align=center;verticalAlign=middle;whiteSpace=wrap;rounded=0;" vertex="1" parent="1">
          <mxGeometry x="750" y="140" width="40" height="20" as="geometry" />
        </mxCell>
        <mxCell id="4hjpOmQQZ08YqFkU7Iz2-36" value="" style="ellipse;whiteSpace=wrap;html=1;aspect=fixed;fillColor=#FFFFFF;" vertex="1" parent="1">
          <mxGeometry x="805" y="110" width="30" height="30" as="geometry" />
        </mxCell>
        <mxCell id="4hjpOmQQZ08YqFkU7Iz2-37" value="&lt;font color=&quot;#ffffff&quot;&gt;Name&lt;/font&gt;" style="text;html=1;strokeColor=none;fillColor=none;align=center;verticalAlign=middle;whiteSpace=wrap;rounded=0;" vertex="1" parent="1">
          <mxGeometry x="800" y="140" width="40" height="20" as="geometry" />
        </mxCell>
        <mxCell id="4hjpOmQQZ08YqFkU7Iz2-38" value="" style="ellipse;whiteSpace=wrap;html=1;aspect=fixed;fillColor=#FFFFFF;" vertex="1" parent="1">
          <mxGeometry x="855" y="110" width="30" height="30" as="geometry" />
        </mxCell>
        <mxCell id="4hjpOmQQZ08YqFkU7Iz2-39" value="&lt;font color=&quot;#ffffff&quot;&gt;Name&lt;/font&gt;" style="text;html=1;strokeColor=none;fillColor=none;align=center;verticalAlign=middle;whiteSpace=wrap;rounded=0;" vertex="1" parent="1">
          <mxGeometry x="850" y="140" width="40" height="20" as="geometry" />
        </mxCell>
        <mxCell id="4hjpOmQQZ08YqFkU7Iz2-40" value="" style="ellipse;whiteSpace=wrap;html=1;aspect=fixed;fillColor=#FFFFFF;" vertex="1" parent="1">
          <mxGeometry x="905" y="110" width="30" height="30" as="geometry" />
        </mxCell>
        <mxCell id="4hjpOmQQZ08YqFkU7Iz2-41" value="&lt;font color=&quot;#ffffff&quot;&gt;Name&lt;/font&gt;" style="text;html=1;strokeColor=none;fillColor=none;align=center;verticalAlign=middle;whiteSpace=wrap;rounded=0;" vertex="1" parent="1">
          <mxGeometry x="900" y="140" width="40" height="20" as="geometry" />
        </mxCell>
        <mxCell id="4hjpOmQQZ08YqFkU7Iz2-42" value="" style="ellipse;whiteSpace=wrap;html=1;aspect=fixed;fillColor=#FFFFFF;" vertex="1" parent="1">
          <mxGeometry x="955" y="110" width="30" height="30" as="geometry" />
        </mxCell>
        <mxCell id="4hjpOmQQZ08YqFkU7Iz2-43" value="&lt;font color=&quot;#ffffff&quot;&gt;Name&lt;/font&gt;" style="text;html=1;strokeColor=none;fillColor=none;align=center;verticalAlign=middle;whiteSpace=wrap;rounded=0;" vertex="1" parent="1">
          <mxGeometry x="950" y="140" width="40" height="20" as="geometry" />
        </mxCell>
        <mxCell id="4hjpOmQQZ08YqFkU7Iz2-49" value="" style="ellipse;whiteSpace=wrap;html=1;aspect=fixed;fillColor=#FFFFFF;" vertex="1" parent="1">
          <mxGeometry x="1005" y="110" width="30" height="30" as="geometry" />
        </mxCell>
        <mxCell id="4hjpOmQQZ08YqFkU7Iz2-50" value="&lt;font color=&quot;#ffffff&quot;&gt;Name&lt;/font&gt;" style="text;html=1;strokeColor=none;fillColor=none;align=center;verticalAlign=middle;whiteSpace=wrap;rounded=0;" vertex="1" parent="1">
          <mxGeometry x="1000" y="140" width="40" height="20" as="geometry" />
        </mxCell>
        <mxCell id="4hjpOmQQZ08YqFkU7Iz2-51" value="" style="ellipse;whiteSpace=wrap;html=1;aspect=fixed;fillColor=#FFFFFF;" vertex="1" parent="1">
          <mxGeometry x="1055" y="110" width="30" height="30" as="geometry" />
        </mxCell>
        <mxCell id="4hjpOmQQZ08YqFkU7Iz2-52" value="&lt;font color=&quot;#ffffff&quot;&gt;Name&lt;/font&gt;" style="text;html=1;strokeColor=none;fillColor=none;align=center;verticalAlign=middle;whiteSpace=wrap;rounded=0;" vertex="1" parent="1">
          <mxGeometry x="1050" y="140" width="40" height="20" as="geometry" />
        </mxCell>
        <mxCell id="4hjpOmQQZ08YqFkU7Iz2-55" value="" style="ellipse;whiteSpace=wrap;html=1;aspect=fixed;fillColor=#FFFFFF;" vertex="1" parent="1">
          <mxGeometry x="105" y="170" width="30" height="30" as="geometry" />
        </mxCell>
        <mxCell id="4hjpOmQQZ08YqFkU7Iz2-56" value="&lt;font color=&quot;#ffffff&quot;&gt;Name&lt;/font&gt;" style="text;html=1;strokeColor=none;fillColor=none;align=center;verticalAlign=middle;whiteSpace=wrap;rounded=0;" vertex="1" parent="1">
          <mxGeometry x="100" y="200" width="40" height="20" as="geometry" />
        </mxCell>
        <mxCell id="4hjpOmQQZ08YqFkU7Iz2-57" value="" style="ellipse;whiteSpace=wrap;html=1;aspect=fixed;fillColor=#FFFFFF;" vertex="1" parent="1">
          <mxGeometry x="155" y="170" width="30" height="30" as="geometry" />
        </mxCell>
        <mxCell id="4hjpOmQQZ08YqFkU7Iz2-58" value="&lt;font color=&quot;#ffffff&quot;&gt;Name&lt;/font&gt;" style="text;html=1;strokeColor=none;fillColor=none;align=center;verticalAlign=middle;whiteSpace=wrap;rounded=0;" vertex="1" parent="1">
          <mxGeometry x="150" y="200" width="40" height="20" as="geometry" />
        </mxCell>
        <mxCell id="4hjpOmQQZ08YqFkU7Iz2-59" value="" style="ellipse;whiteSpace=wrap;html=1;aspect=fixed;fillColor=#FFFFFF;" vertex="1" parent="1">
          <mxGeometry x="205" y="170" width="30" height="30" as="geometry" />
        </mxCell>
        <mxCell id="4hjpOmQQZ08YqFkU7Iz2-60" value="&lt;font color=&quot;#ffffff&quot;&gt;Name&lt;/font&gt;" style="text;html=1;strokeColor=none;fillColor=none;align=center;verticalAlign=middle;whiteSpace=wrap;rounded=0;" vertex="1" parent="1">
          <mxGeometry x="200" y="200" width="40" height="20" as="geometry" />
        </mxCell>
        <mxCell id="4hjpOmQQZ08YqFkU7Iz2-61" value="" style="ellipse;whiteSpace=wrap;html=1;aspect=fixed;fillColor=#FFFFFF;" vertex="1" parent="1">
          <mxGeometry x="255" y="170" width="30" height="30" as="geometry" />
        </mxCell>
        <mxCell id="4hjpOmQQZ08YqFkU7Iz2-62" value="&lt;font color=&quot;#ffffff&quot;&gt;Name&lt;/font&gt;" style="text;html=1;strokeColor=none;fillColor=none;align=center;verticalAlign=middle;whiteSpace=wrap;rounded=0;" vertex="1" parent="1">
          <mxGeometry x="250" y="200" width="40" height="20" as="geometry" />
        </mxCell>
        <mxCell id="4hjpOmQQZ08YqFkU7Iz2-63" value="" style="ellipse;whiteSpace=wrap;html=1;aspect=fixed;fillColor=#FFFFFF;" vertex="1" parent="1">
          <mxGeometry x="305" y="170" width="30" height="30" as="geometry" />
        </mxCell>
        <mxCell id="4hjpOmQQZ08YqFkU7Iz2-64" value="&lt;font color=&quot;#ffffff&quot;&gt;Name&lt;/font&gt;" style="text;html=1;strokeColor=none;fillColor=none;align=center;verticalAlign=middle;whiteSpace=wrap;rounded=0;" vertex="1" parent="1">
          <mxGeometry x="300" y="200" width="40" height="20" as="geometry" />
        </mxCell>
        <mxCell id="4hjpOmQQZ08YqFkU7Iz2-65" value="" style="ellipse;whiteSpace=wrap;html=1;aspect=fixed;fillColor=#FFFFFF;" vertex="1" parent="1">
          <mxGeometry x="355" y="170" width="30" height="30" as="geometry" />
        </mxCell>
        <mxCell id="4hjpOmQQZ08YqFkU7Iz2-66" value="&lt;font color=&quot;#ffffff&quot;&gt;Name&lt;/font&gt;" style="text;html=1;strokeColor=none;fillColor=none;align=center;verticalAlign=middle;whiteSpace=wrap;rounded=0;" vertex="1" parent="1">
          <mxGeometry x="350" y="200" width="40" height="20" as="geometry" />
        </mxCell>
        <mxCell id="4hjpOmQQZ08YqFkU7Iz2-67" value="" style="ellipse;whiteSpace=wrap;html=1;aspect=fixed;fillColor=#FFFFFF;" vertex="1" parent="1">
          <mxGeometry x="405" y="170" width="30" height="30" as="geometry" />
        </mxCell>
        <mxCell id="4hjpOmQQZ08YqFkU7Iz2-68" value="&lt;font color=&quot;#ffffff&quot;&gt;Name&lt;/font&gt;" style="text;html=1;strokeColor=none;fillColor=none;align=center;verticalAlign=middle;whiteSpace=wrap;rounded=0;" vertex="1" parent="1">
          <mxGeometry x="400" y="200" width="40" height="20" as="geometry" />
        </mxCell>
        <mxCell id="4hjpOmQQZ08YqFkU7Iz2-69" value="" style="ellipse;whiteSpace=wrap;html=1;aspect=fixed;fillColor=#FFFFFF;" vertex="1" parent="1">
          <mxGeometry x="455" y="170" width="30" height="30" as="geometry" />
        </mxCell>
        <mxCell id="4hjpOmQQZ08YqFkU7Iz2-70" value="&lt;font color=&quot;#ffffff&quot;&gt;Name&lt;/font&gt;" style="text;html=1;strokeColor=none;fillColor=none;align=center;verticalAlign=middle;whiteSpace=wrap;rounded=0;" vertex="1" parent="1">
          <mxGeometry x="450" y="200" width="40" height="20" as="geometry" />
        </mxCell>
        <mxCell id="4hjpOmQQZ08YqFkU7Iz2-71" value="" style="ellipse;whiteSpace=wrap;html=1;aspect=fixed;fillColor=#FFFFFF;" vertex="1" parent="1">
          <mxGeometry x="505" y="170" width="30" height="30" as="geometry" />
        </mxCell>
        <mxCell id="4hjpOmQQZ08YqFkU7Iz2-72" value="&lt;font color=&quot;#ffffff&quot;&gt;Name&lt;/font&gt;" style="text;html=1;strokeColor=none;fillColor=none;align=center;verticalAlign=middle;whiteSpace=wrap;rounded=0;" vertex="1" parent="1">
          <mxGeometry x="500" y="200" width="40" height="20" as="geometry" />
        </mxCell>
        <mxCell id="4hjpOmQQZ08YqFkU7Iz2-73" value="" style="ellipse;whiteSpace=wrap;html=1;aspect=fixed;fillColor=#FFFFFF;" vertex="1" parent="1">
          <mxGeometry x="555" y="170" width="30" height="30" as="geometry" />
        </mxCell>
        <mxCell id="4hjpOmQQZ08YqFkU7Iz2-74" value="&lt;font color=&quot;#ffffff&quot;&gt;Name&lt;/font&gt;" style="text;html=1;strokeColor=none;fillColor=none;align=center;verticalAlign=middle;whiteSpace=wrap;rounded=0;" vertex="1" parent="1">
          <mxGeometry x="550" y="200" width="40" height="20" as="geometry" />
        </mxCell>
        <mxCell id="4hjpOmQQZ08YqFkU7Iz2-75" value="" style="ellipse;whiteSpace=wrap;html=1;aspect=fixed;fillColor=#FFFFFF;" vertex="1" parent="1">
          <mxGeometry x="605" y="170" width="30" height="30" as="geometry" />
        </mxCell>
        <mxCell id="4hjpOmQQZ08YqFkU7Iz2-76" value="&lt;font color=&quot;#ffffff&quot;&gt;Name&lt;/font&gt;" style="text;html=1;strokeColor=none;fillColor=none;align=center;verticalAlign=middle;whiteSpace=wrap;rounded=0;" vertex="1" parent="1">
          <mxGeometry x="600" y="200" width="40" height="20" as="geometry" />
        </mxCell>
        <mxCell id="4hjpOmQQZ08YqFkU7Iz2-77" value="" style="ellipse;whiteSpace=wrap;html=1;aspect=fixed;fillColor=#FFFFFF;" vertex="1" parent="1">
          <mxGeometry x="655" y="170" width="30" height="30" as="geometry" />
        </mxCell>
        <mxCell id="4hjpOmQQZ08YqFkU7Iz2-78" value="&lt;font color=&quot;#ffffff&quot;&gt;Name&lt;/font&gt;" style="text;html=1;strokeColor=none;fillColor=none;align=center;verticalAlign=middle;whiteSpace=wrap;rounded=0;" vertex="1" parent="1">
          <mxGeometry x="650" y="200" width="40" height="20" as="geometry" />
        </mxCell>
        <mxCell id="4hjpOmQQZ08YqFkU7Iz2-79" value="" style="ellipse;whiteSpace=wrap;html=1;aspect=fixed;fillColor=#FFFFFF;" vertex="1" parent="1">
          <mxGeometry x="705" y="170" width="30" height="30" as="geometry" />
        </mxCell>
        <mxCell id="4hjpOmQQZ08YqFkU7Iz2-80" value="&lt;font color=&quot;#ffffff&quot;&gt;Name&lt;/font&gt;" style="text;html=1;strokeColor=none;fillColor=none;align=center;verticalAlign=middle;whiteSpace=wrap;rounded=0;" vertex="1" parent="1">
          <mxGeometry x="700" y="200" width="40" height="20" as="geometry" />
        </mxCell>
        <mxCell id="4hjpOmQQZ08YqFkU7Iz2-81" value="" style="ellipse;whiteSpace=wrap;html=1;aspect=fixed;fillColor=#FFFFFF;" vertex="1" parent="1">
          <mxGeometry x="755" y="170" width="30" height="30" as="geometry" />
        </mxCell>
        <mxCell id="4hjpOmQQZ08YqFkU7Iz2-82" value="&lt;font color=&quot;#ffffff&quot;&gt;Name&lt;/font&gt;" style="text;html=1;strokeColor=none;fillColor=none;align=center;verticalAlign=middle;whiteSpace=wrap;rounded=0;" vertex="1" parent="1">
          <mxGeometry x="750" y="200" width="40" height="20" as="geometry" />
        </mxCell>
        <mxCell id="4hjpOmQQZ08YqFkU7Iz2-83" value="" style="ellipse;whiteSpace=wrap;html=1;aspect=fixed;fillColor=#FFFFFF;" vertex="1" parent="1">
          <mxGeometry x="805" y="170" width="30" height="30" as="geometry" />
        </mxCell>
        <mxCell id="4hjpOmQQZ08YqFkU7Iz2-84" value="&lt;font color=&quot;#ffffff&quot;&gt;Name&lt;/font&gt;" style="text;html=1;strokeColor=none;fillColor=none;align=center;verticalAlign=middle;whiteSpace=wrap;rounded=0;" vertex="1" parent="1">
          <mxGeometry x="800" y="200" width="40" height="20" as="geometry" />
        </mxCell>
        <mxCell id="4hjpOmQQZ08YqFkU7Iz2-85" value="" style="ellipse;whiteSpace=wrap;html=1;aspect=fixed;fillColor=#FFFFFF;" vertex="1" parent="1">
          <mxGeometry x="855" y="170" width="30" height="30" as="geometry" />
        </mxCell>
        <mxCell id="4hjpOmQQZ08YqFkU7Iz2-86" value="&lt;font color=&quot;#ffffff&quot;&gt;Name&lt;/font&gt;" style="text;html=1;strokeColor=none;fillColor=none;align=center;verticalAlign=middle;whiteSpace=wrap;rounded=0;" vertex="1" parent="1">
          <mxGeometry x="850" y="200" width="40" height="20" as="geometry" />
        </mxCell>
        <mxCell id="4hjpOmQQZ08YqFkU7Iz2-87" value="" style="ellipse;whiteSpace=wrap;html=1;aspect=fixed;fillColor=#FFFFFF;" vertex="1" parent="1">
          <mxGeometry x="905" y="170" width="30" height="30" as="geometry" />
        </mxCell>
        <mxCell id="4hjpOmQQZ08YqFkU7Iz2-88" value="&lt;font color=&quot;#ffffff&quot;&gt;Name&lt;/font&gt;" style="text;html=1;strokeColor=none;fillColor=none;align=center;verticalAlign=middle;whiteSpace=wrap;rounded=0;" vertex="1" parent="1">
          <mxGeometry x="900" y="200" width="40" height="20" as="geometry" />
        </mxCell>
        <mxCell id="4hjpOmQQZ08YqFkU7Iz2-89" value="" style="ellipse;whiteSpace=wrap;html=1;aspect=fixed;fillColor=#FFFFFF;" vertex="1" parent="1">
          <mxGeometry x="955" y="170" width="30" height="30" as="geometry" />
        </mxCell>
        <mxCell id="4hjpOmQQZ08YqFkU7Iz2-90" value="&lt;font color=&quot;#ffffff&quot;&gt;Name&lt;/font&gt;" style="text;html=1;strokeColor=none;fillColor=none;align=center;verticalAlign=middle;whiteSpace=wrap;rounded=0;" vertex="1" parent="1">
          <mxGeometry x="950" y="200" width="40" height="20" as="geometry" />
        </mxCell>
        <mxCell id="4hjpOmQQZ08YqFkU7Iz2-91" value="" style="ellipse;whiteSpace=wrap;html=1;aspect=fixed;fillColor=#FFFFFF;" vertex="1" parent="1">
          <mxGeometry x="1005" y="170" width="30" height="30" as="geometry" />
        </mxCell>
        <mxCell id="4hjpOmQQZ08YqFkU7Iz2-92" value="&lt;font color=&quot;#ffffff&quot;&gt;Name&lt;/font&gt;" style="text;html=1;strokeColor=none;fillColor=none;align=center;verticalAlign=middle;whiteSpace=wrap;rounded=0;" vertex="1" parent="1">
          <mxGeometry x="1000" y="200" width="40" height="20" as="geometry" />
        </mxCell>
        <mxCell id="4hjpOmQQZ08YqFkU7Iz2-93" value="" style="ellipse;whiteSpace=wrap;html=1;aspect=fixed;fillColor=#FFFFFF;" vertex="1" parent="1">
          <mxGeometry x="1055" y="170" width="30" height="30" as="geometry" />
        </mxCell>
        <mxCell id="4hjpOmQQZ08YqFkU7Iz2-94" value="&lt;font color=&quot;#ffffff&quot;&gt;Name&lt;/font&gt;" style="text;html=1;strokeColor=none;fillColor=none;align=center;verticalAlign=middle;whiteSpace=wrap;rounded=0;" vertex="1" parent="1">
          <mxGeometry x="1050" y="200" width="40" height="20" as="geometry" />
        </mxCell>
        <mxCell id="4hjpOmQQZ08YqFkU7Iz2-95" value="" style="ellipse;whiteSpace=wrap;html=1;aspect=fixed;fillColor=#FFFFFF;" vertex="1" parent="1">
          <mxGeometry x="105" y="230" width="30" height="30" as="geometry" />
        </mxCell>
        <mxCell id="4hjpOmQQZ08YqFkU7Iz2-96" value="&lt;font color=&quot;#ffffff&quot;&gt;Name&lt;/font&gt;" style="text;html=1;strokeColor=none;fillColor=none;align=center;verticalAlign=middle;whiteSpace=wrap;rounded=0;" vertex="1" parent="1">
          <mxGeometry x="100" y="260" width="40" height="20" as="geometry" />
        </mxCell>
        <mxCell id="4hjpOmQQZ08YqFkU7Iz2-97" value="" style="ellipse;whiteSpace=wrap;html=1;aspect=fixed;fillColor=#FFFFFF;" vertex="1" parent="1">
          <mxGeometry x="155" y="230" width="30" height="30" as="geometry" />
        </mxCell>
        <mxCell id="4hjpOmQQZ08YqFkU7Iz2-98" value="&lt;font color=&quot;#ffffff&quot;&gt;Name&lt;/font&gt;" style="text;html=1;strokeColor=none;fillColor=none;align=center;verticalAlign=middle;whiteSpace=wrap;rounded=0;" vertex="1" parent="1">
          <mxGeometry x="150" y="260" width="40" height="20" as="geometry" />
        </mxCell>
        <mxCell id="4hjpOmQQZ08YqFkU7Iz2-99" value="" style="ellipse;whiteSpace=wrap;html=1;aspect=fixed;fillColor=#FFFFFF;" vertex="1" parent="1">
          <mxGeometry x="205" y="230" width="30" height="30" as="geometry" />
        </mxCell>
        <mxCell id="4hjpOmQQZ08YqFkU7Iz2-100" value="&lt;font color=&quot;#ffffff&quot;&gt;Name&lt;/font&gt;" style="text;html=1;strokeColor=none;fillColor=none;align=center;verticalAlign=middle;whiteSpace=wrap;rounded=0;" vertex="1" parent="1">
          <mxGeometry x="200" y="260" width="40" height="20" as="geometry" />
        </mxCell>
        <mxCell id="4hjpOmQQZ08YqFkU7Iz2-101" value="" style="ellipse;whiteSpace=wrap;html=1;aspect=fixed;fillColor=#FFFFFF;" vertex="1" parent="1">
          <mxGeometry x="255" y="230" width="30" height="30" as="geometry" />
        </mxCell>
        <mxCell id="4hjpOmQQZ08YqFkU7Iz2-102" value="&lt;font color=&quot;#ffffff&quot;&gt;Name&lt;/font&gt;" style="text;html=1;strokeColor=none;fillColor=none;align=center;verticalAlign=middle;whiteSpace=wrap;rounded=0;" vertex="1" parent="1">
          <mxGeometry x="250" y="260" width="40" height="20" as="geometry" />
        </mxCell>
        <mxCell id="4hjpOmQQZ08YqFkU7Iz2-103" value="" style="ellipse;whiteSpace=wrap;html=1;aspect=fixed;fillColor=#FFFFFF;" vertex="1" parent="1">
          <mxGeometry x="305" y="230" width="30" height="30" as="geometry" />
        </mxCell>
        <mxCell id="4hjpOmQQZ08YqFkU7Iz2-104" value="&lt;font color=&quot;#ffffff&quot;&gt;Name&lt;/font&gt;" style="text;html=1;strokeColor=none;fillColor=none;align=center;verticalAlign=middle;whiteSpace=wrap;rounded=0;" vertex="1" parent="1">
          <mxGeometry x="300" y="260" width="40" height="20" as="geometry" />
        </mxCell>
        <mxCell id="4hjpOmQQZ08YqFkU7Iz2-105" value="" style="ellipse;whiteSpace=wrap;html=1;aspect=fixed;fillColor=#FFFFFF;" vertex="1" parent="1">
          <mxGeometry x="355" y="230" width="30" height="30" as="geometry" />
        </mxCell>
        <mxCell id="4hjpOmQQZ08YqFkU7Iz2-106" value="&lt;font color=&quot;#ffffff&quot;&gt;Name&lt;/font&gt;" style="text;html=1;strokeColor=none;fillColor=none;align=center;verticalAlign=middle;whiteSpace=wrap;rounded=0;" vertex="1" parent="1">
          <mxGeometry x="350" y="260" width="40" height="20" as="geometry" />
        </mxCell>
        <mxCell id="4hjpOmQQZ08YqFkU7Iz2-107" value="" style="ellipse;whiteSpace=wrap;html=1;aspect=fixed;fillColor=#FFFFFF;" vertex="1" parent="1">
          <mxGeometry x="405" y="230" width="30" height="30" as="geometry" />
        </mxCell>
        <mxCell id="4hjpOmQQZ08YqFkU7Iz2-108" value="&lt;font color=&quot;#ffffff&quot;&gt;Name&lt;/font&gt;" style="text;html=1;strokeColor=none;fillColor=none;align=center;verticalAlign=middle;whiteSpace=wrap;rounded=0;" vertex="1" parent="1">
          <mxGeometry x="400" y="260" width="40" height="20" as="geometry" />
        </mxCell>
        <mxCell id="4hjpOmQQZ08YqFkU7Iz2-109" value="" style="ellipse;whiteSpace=wrap;html=1;aspect=fixed;fillColor=#FFFFFF;" vertex="1" parent="1">
          <mxGeometry x="455" y="230" width="30" height="30" as="geometry" />
        </mxCell>
        <mxCell id="4hjpOmQQZ08YqFkU7Iz2-110" value="&lt;font color=&quot;#ffffff&quot;&gt;Name&lt;/font&gt;" style="text;html=1;strokeColor=none;fillColor=none;align=center;verticalAlign=middle;whiteSpace=wrap;rounded=0;" vertex="1" parent="1">
          <mxGeometry x="450" y="260" width="40" height="20" as="geometry" />
        </mxCell>
        <mxCell id="4hjpOmQQZ08YqFkU7Iz2-111" value="" style="ellipse;whiteSpace=wrap;html=1;aspect=fixed;fillColor=#FFFFFF;" vertex="1" parent="1">
          <mxGeometry x="505" y="230" width="30" height="30" as="geometry" />
        </mxCell>
        <mxCell id="4hjpOmQQZ08YqFkU7Iz2-112" value="&lt;font color=&quot;#ffffff&quot;&gt;Name&lt;/font&gt;" style="text;html=1;strokeColor=none;fillColor=none;align=center;verticalAlign=middle;whiteSpace=wrap;rounded=0;" vertex="1" parent="1">
          <mxGeometry x="500" y="260" width="40" height="20" as="geometry" />
        </mxCell>
        <mxCell id="4hjpOmQQZ08YqFkU7Iz2-113" value="" style="ellipse;whiteSpace=wrap;html=1;aspect=fixed;fillColor=#FFFFFF;" vertex="1" parent="1">
          <mxGeometry x="555" y="230" width="30" height="30" as="geometry" />
        </mxCell>
        <mxCell id="4hjpOmQQZ08YqFkU7Iz2-114" value="&lt;font color=&quot;#ffffff&quot;&gt;Name&lt;/font&gt;" style="text;html=1;strokeColor=none;fillColor=none;align=center;verticalAlign=middle;whiteSpace=wrap;rounded=0;" vertex="1" parent="1">
          <mxGeometry x="550" y="260" width="40" height="20" as="geometry" />
        </mxCell>
        <mxCell id="4hjpOmQQZ08YqFkU7Iz2-115" value="" style="ellipse;whiteSpace=wrap;html=1;aspect=fixed;fillColor=#FFFFFF;" vertex="1" parent="1">
          <mxGeometry x="605" y="230" width="30" height="30" as="geometry" />
        </mxCell>
        <mxCell id="4hjpOmQQZ08YqFkU7Iz2-116" value="&lt;font color=&quot;#ffffff&quot;&gt;Name&lt;/font&gt;" style="text;html=1;strokeColor=none;fillColor=none;align=center;verticalAlign=middle;whiteSpace=wrap;rounded=0;" vertex="1" parent="1">
          <mxGeometry x="600" y="260" width="40" height="20" as="geometry" />
        </mxCell>
        <mxCell id="4hjpOmQQZ08YqFkU7Iz2-117" value="" style="ellipse;whiteSpace=wrap;html=1;aspect=fixed;fillColor=#FFFFFF;" vertex="1" parent="1">
          <mxGeometry x="655" y="230" width="30" height="30" as="geometry" />
        </mxCell>
        <mxCell id="4hjpOmQQZ08YqFkU7Iz2-118" value="&lt;font color=&quot;#ffffff&quot;&gt;Name&lt;/font&gt;" style="text;html=1;strokeColor=none;fillColor=none;align=center;verticalAlign=middle;whiteSpace=wrap;rounded=0;" vertex="1" parent="1">
          <mxGeometry x="650" y="260" width="40" height="20" as="geometry" />
        </mxCell>
        <mxCell id="4hjpOmQQZ08YqFkU7Iz2-119" value="" style="ellipse;whiteSpace=wrap;html=1;aspect=fixed;fillColor=#FFFFFF;" vertex="1" parent="1">
          <mxGeometry x="705" y="230" width="30" height="30" as="geometry" />
        </mxCell>
        <mxCell id="4hjpOmQQZ08YqFkU7Iz2-120" value="&lt;font color=&quot;#ffffff&quot;&gt;Name&lt;/font&gt;" style="text;html=1;strokeColor=none;fillColor=none;align=center;verticalAlign=middle;whiteSpace=wrap;rounded=0;" vertex="1" parent="1">
          <mxGeometry x="700" y="260" width="40" height="20" as="geometry" />
        </mxCell>
        <mxCell id="4hjpOmQQZ08YqFkU7Iz2-121" value="" style="ellipse;whiteSpace=wrap;html=1;aspect=fixed;fillColor=#FFFFFF;" vertex="1" parent="1">
          <mxGeometry x="755" y="230" width="30" height="30" as="geometry" />
        </mxCell>
        <mxCell id="4hjpOmQQZ08YqFkU7Iz2-122" value="&lt;font color=&quot;#ffffff&quot;&gt;Name&lt;/font&gt;" style="text;html=1;strokeColor=none;fillColor=none;align=center;verticalAlign=middle;whiteSpace=wrap;rounded=0;" vertex="1" parent="1">
          <mxGeometry x="750" y="260" width="40" height="20" as="geometry" />
        </mxCell>
        <mxCell id="4hjpOmQQZ08YqFkU7Iz2-123" value="" style="ellipse;whiteSpace=wrap;html=1;aspect=fixed;fillColor=#FFFFFF;" vertex="1" parent="1">
          <mxGeometry x="805" y="230" width="30" height="30" as="geometry" />
        </mxCell>
        <mxCell id="4hjpOmQQZ08YqFkU7Iz2-124" value="&lt;font color=&quot;#ffffff&quot;&gt;Name&lt;/font&gt;" style="text;html=1;strokeColor=none;fillColor=none;align=center;verticalAlign=middle;whiteSpace=wrap;rounded=0;" vertex="1" parent="1">
          <mxGeometry x="800" y="260" width="40" height="20" as="geometry" />
        </mxCell>
        <mxCell id="4hjpOmQQZ08YqFkU7Iz2-125" value="" style="ellipse;whiteSpace=wrap;html=1;aspect=fixed;fillColor=#FFFFFF;" vertex="1" parent="1">
          <mxGeometry x="855" y="230" width="30" height="30" as="geometry" />
        </mxCell>
        <mxCell id="4hjpOmQQZ08YqFkU7Iz2-126" value="&lt;font color=&quot;#ffffff&quot;&gt;Name&lt;/font&gt;" style="text;html=1;strokeColor=none;fillColor=none;align=center;verticalAlign=middle;whiteSpace=wrap;rounded=0;" vertex="1" parent="1">
          <mxGeometry x="850" y="260" width="40" height="20" as="geometry" />
        </mxCell>
        <mxCell id="4hjpOmQQZ08YqFkU7Iz2-127" value="" style="ellipse;whiteSpace=wrap;html=1;aspect=fixed;fillColor=#FFFFFF;" vertex="1" parent="1">
          <mxGeometry x="905" y="230" width="30" height="30" as="geometry" />
        </mxCell>
        <mxCell id="4hjpOmQQZ08YqFkU7Iz2-128" value="&lt;font color=&quot;#ffffff&quot;&gt;Name&lt;/font&gt;" style="text;html=1;strokeColor=none;fillColor=none;align=center;verticalAlign=middle;whiteSpace=wrap;rounded=0;" vertex="1" parent="1">
          <mxGeometry x="900" y="260" width="40" height="20" as="geometry" />
        </mxCell>
        <mxCell id="4hjpOmQQZ08YqFkU7Iz2-129" value="" style="ellipse;whiteSpace=wrap;html=1;aspect=fixed;fillColor=#FFFFFF;" vertex="1" parent="1">
          <mxGeometry x="955" y="230" width="30" height="30" as="geometry" />
        </mxCell>
        <mxCell id="4hjpOmQQZ08YqFkU7Iz2-130" value="&lt;font color=&quot;#ffffff&quot;&gt;Name&lt;/font&gt;" style="text;html=1;strokeColor=none;fillColor=none;align=center;verticalAlign=middle;whiteSpace=wrap;rounded=0;" vertex="1" parent="1">
          <mxGeometry x="950" y="260" width="40" height="20" as="geometry" />
        </mxCell>
        <mxCell id="4hjpOmQQZ08YqFkU7Iz2-131" value="" style="ellipse;whiteSpace=wrap;html=1;aspect=fixed;fillColor=#FFFFFF;" vertex="1" parent="1">
          <mxGeometry x="1005" y="230" width="30" height="30" as="geometry" />
        </mxCell>
        <mxCell id="4hjpOmQQZ08YqFkU7Iz2-132" value="&lt;font color=&quot;#ffffff&quot;&gt;Name&lt;/font&gt;" style="text;html=1;strokeColor=none;fillColor=none;align=center;verticalAlign=middle;whiteSpace=wrap;rounded=0;" vertex="1" parent="1">
          <mxGeometry x="1000" y="260" width="40" height="20" as="geometry" />
        </mxCell>
        <mxCell id="4hjpOmQQZ08YqFkU7Iz2-133" value="" style="ellipse;whiteSpace=wrap;html=1;aspect=fixed;fillColor=#FFFFFF;" vertex="1" parent="1">
          <mxGeometry x="1055" y="230" width="30" height="30" as="geometry" />
        </mxCell>
        <mxCell id="4hjpOmQQZ08YqFkU7Iz2-134" value="&lt;font color=&quot;#ffffff&quot;&gt;Name&lt;/font&gt;" style="text;html=1;strokeColor=none;fillColor=none;align=center;verticalAlign=middle;whiteSpace=wrap;rounded=0;" vertex="1" parent="1">
          <mxGeometry x="1050" y="260" width="40" height="20" as="geometry" />
        </mxCell>
        <mxCell id="4hjpOmQQZ08YqFkU7Iz2-135" value="&lt;font color=&quot;#f4b834&quot; style=&quot;font-size: 26px&quot;&gt;Team&lt;/font&gt;" style="text;html=1;strokeColor=none;fillColor=none;align=center;verticalAlign=middle;whiteSpace=wrap;rounded=0;" vertex="1" parent="1">
          <mxGeometry x="510" y="320" width="160" height="40" as="geometry" />
        </mxCell>
        <mxCell id="4hjpOmQQZ08YqFkU7Iz2-139" value="" style="rounded=1;whiteSpace=wrap;html=1;fillColor=#f4b834;" vertex="1" parent="1">
          <mxGeometry x="70" y="370" width="1040" height="120" as="geometry" />
        </mxCell>
        <mxCell id="4hjpOmQQZ08YqFkU7Iz2-140" value="" style="rounded=1;whiteSpace=wrap;html=1;fillColor=#000000;" vertex="1" parent="1">
          <mxGeometry x="80" y="380" width="1020" height="100" as="geometry" />
        </mxCell>
        <mxCell id="4hjpOmQQZ08YqFkU7Iz2-141" value="" style="ellipse;whiteSpace=wrap;html=1;aspect=fixed;fillColor=#FFFFFF;" vertex="1" parent="1">
          <mxGeometry x="101.25" y="412.5" width="65" height="65" as="geometry" />
        </mxCell>
        <mxCell id="4hjpOmQQZ08YqFkU7Iz2-142" value="&lt;font color=&quot;#ffffff&quot; style=&quot;font-size: 20px&quot;&gt;Name&lt;/font&gt;" style="text;html=1;strokeColor=none;fillColor=none;align=center;verticalAlign=middle;whiteSpace=wrap;rounded=0;" vertex="1" parent="1">
          <mxGeometry x="93.75" y="382.5" width="80" height="30" as="geometry" />
        </mxCell>
        <mxCell id="4hjpOmQQZ08YqFkU7Iz2-143" value="" style="ellipse;whiteSpace=wrap;html=1;aspect=fixed;fillColor=#FFFFFF;" vertex="1" parent="1">
          <mxGeometry x="557" y="414" width="65" height="65" as="geometry" />
        </mxCell>
        <mxCell id="4hjpOmQQZ08YqFkU7Iz2-144" value="" style="ellipse;whiteSpace=wrap;html=1;aspect=fixed;fillColor=#FFFFFF;" vertex="1" parent="1">
          <mxGeometry x="328.75" y="382.5" width="65" height="65" as="geometry" />
        </mxCell>
        <mxCell id="4hjpOmQQZ08YqFkU7Iz2-145" value="" style="ellipse;whiteSpace=wrap;html=1;aspect=fixed;fillColor=#FFFFFF;" vertex="1" parent="1">
          <mxGeometry x="787.5" y="382.5" width="65" height="65" as="geometry" />
        </mxCell>
        <mxCell id="4hjpOmQQZ08YqFkU7Iz2-146" value="" style="ellipse;whiteSpace=wrap;html=1;aspect=fixed;fillColor=#FFFFFF;" vertex="1" parent="1">
          <mxGeometry x="1020" y="412.5" width="65" height="65" as="geometry" />
        </mxCell>
        <mxCell id="4hjpOmQQZ08YqFkU7Iz2-147" value="&lt;font color=&quot;#ffffff&quot; style=&quot;font-size: 20px&quot;&gt;Name&lt;/font&gt;" style="text;html=1;strokeColor=none;fillColor=none;align=center;verticalAlign=middle;whiteSpace=wrap;rounded=0;" vertex="1" parent="1">
          <mxGeometry x="321.25" y="449" width="80" height="30" as="geometry" />
        </mxCell>
        <mxCell id="4hjpOmQQZ08YqFkU7Iz2-148" value="&lt;font color=&quot;#ffffff&quot; style=&quot;font-size: 20px&quot;&gt;Name&lt;/font&gt;" style="text;html=1;strokeColor=none;fillColor=none;align=center;verticalAlign=middle;whiteSpace=wrap;rounded=0;" vertex="1" parent="1">
          <mxGeometry x="550" y="384" width="80" height="30" as="geometry" />
        </mxCell>
        <mxCell id="4hjpOmQQZ08YqFkU7Iz2-149" value="&lt;font color=&quot;#ffffff&quot; style=&quot;font-size: 20px&quot;&gt;Name&lt;/font&gt;" style="text;html=1;strokeColor=none;fillColor=none;align=center;verticalAlign=middle;whiteSpace=wrap;rounded=0;" vertex="1" parent="1">
          <mxGeometry x="1010" y="382.5" width="80" height="30" as="geometry" />
        </mxCell>
        <mxCell id="4hjpOmQQZ08YqFkU7Iz2-150" value="&lt;font color=&quot;#ffffff&quot; style=&quot;font-size: 20px&quot;&gt;Name&lt;/font&gt;" style="text;html=1;strokeColor=none;fillColor=none;align=center;verticalAlign=middle;whiteSpace=wrap;rounded=0;" vertex="1" parent="1">
          <mxGeometry x="780" y="449" width="80" height="30" as="geometry" />
        </mxCell>
        <mxCell id="4hjpOmQQZ08YqFkU7Iz2-151" value="" style="rounded=1;whiteSpace=wrap;html=1;fillColor=#f4b834;" vertex="1" parent="1">
          <mxGeometry x="27.5" y="510" width="212.5" height="410" as="geometry" />
        </mxCell>
        <mxCell id="4hjpOmQQZ08YqFkU7Iz2-152" value="" style="rounded=1;whiteSpace=wrap;html=1;fillColor=#000000;" vertex="1" parent="1">
          <mxGeometry x="37.5" y="520" width="192.5" height="390" as="geometry" />
        </mxCell>
        <mxCell id="4hjpOmQQZ08YqFkU7Iz2-163" value="&lt;h1 style=&quot;font-size: 10px&quot;&gt;&lt;font color=&quot;#ffffff&quot; style=&quot;font-size: 10px&quot;&gt;Basic&lt;/font&gt;&lt;/h1&gt;&lt;p&gt;&lt;font color=&quot;#ffffff&quot; style=&quot;font-size: 7px&quot;&gt;Lorem ipsum dolor sit amet, consectetur adipisicing elit, sed do eiusmod tempor incididunt ut labore et dolore magna aliqua.&lt;/font&gt;&lt;/p&gt;" style="text;html=1;strokeColor=none;fillColor=none;spacing=5;spacingTop=-20;whiteSpace=wrap;overflow=hidden;rounded=0;" vertex="1" parent="1">
          <mxGeometry x="38.75" y="540" width="190" height="70" as="geometry" />
        </mxCell>
        <mxCell id="4hjpOmQQZ08YqFkU7Iz2-168" value="&lt;h1&gt;&lt;font color=&quot;#ffffff&quot; style=&quot;font-size: 10px&quot;&gt;Special&lt;/font&gt;&lt;/h1&gt;&lt;p&gt;&lt;font color=&quot;#ffffff&quot; style=&quot;font-size: 7px&quot;&gt;Lorem ipsum dolor sit amet, consectetur adipisicing elit, sed do eiusmod tempor incididunt ut labore et dolore magna aliqua.&lt;/font&gt;&lt;/p&gt;" style="text;html=1;strokeColor=none;fillColor=none;spacing=5;spacingTop=-20;whiteSpace=wrap;overflow=hidden;rounded=0;" vertex="1" parent="1">
          <mxGeometry x="38.75" y="610" width="190" height="90" as="geometry" />
        </mxCell>
        <mxCell id="4hjpOmQQZ08YqFkU7Iz2-169" value="&lt;h1&gt;&lt;font color=&quot;#ffffff&quot; style=&quot;font-size: 10px&quot;&gt;Ultimate&lt;/font&gt;&lt;/h1&gt;&lt;p&gt;&lt;font color=&quot;#ffffff&quot; style=&quot;font-size: 7px&quot;&gt;Lorem ipsum dolor sit amet, consectetur adipisicing elit, sed do eiusmod tempor incididunt ut labore et dolore magna aliqua.&lt;/font&gt;&lt;/p&gt;" style="text;html=1;strokeColor=none;fillColor=none;spacing=5;spacingTop=-20;whiteSpace=wrap;overflow=hidden;rounded=0;" vertex="1" parent="1">
          <mxGeometry x="37.5" y="700" width="190" height="90" as="geometry" />
        </mxCell>
        <mxCell id="4hjpOmQQZ08YqFkU7Iz2-170" value="&lt;h1&gt;&lt;font color=&quot;#ffffff&quot; style=&quot;font-size: 10px&quot;&gt;Passive&lt;/font&gt;&lt;/h1&gt;&lt;p&gt;&lt;font color=&quot;#ffffff&quot; style=&quot;font-size: 7px&quot;&gt;Lorem ipsum dolor sit amet, consectetur adipisicing elit, sed do eiusmod tempor incididunt ut labore et dolore magna aliqua.&lt;/font&gt;&lt;/p&gt;" style="text;html=1;strokeColor=none;fillColor=none;spacing=5;spacingTop=-20;whiteSpace=wrap;overflow=hidden;rounded=0;" vertex="1" parent="1">
          <mxGeometry x="37.5" y="790" width="190" height="90" as="geometry" />
        </mxCell>
        <mxCell id="4hjpOmQQZ08YqFkU7Iz2-172" value="" style="rounded=1;whiteSpace=wrap;html=1;fillColor=#f4b834;" vertex="1" parent="1">
          <mxGeometry x="255" y="510" width="212.5" height="410" as="geometry" />
        </mxCell>
        <mxCell id="4hjpOmQQZ08YqFkU7Iz2-173" value="" style="rounded=1;whiteSpace=wrap;html=1;fillColor=#000000;" vertex="1" parent="1">
          <mxGeometry x="265" y="520" width="192.5" height="390" as="geometry" />
        </mxCell>
        <mxCell id="4hjpOmQQZ08YqFkU7Iz2-174" value="&lt;h1 style=&quot;font-size: 10px&quot;&gt;&lt;font color=&quot;#ffffff&quot; style=&quot;font-size: 10px&quot;&gt;Basic&lt;/font&gt;&lt;/h1&gt;&lt;p&gt;&lt;font color=&quot;#ffffff&quot; style=&quot;font-size: 7px&quot;&gt;Lorem ipsum dolor sit amet, consectetur adipisicing elit, sed do eiusmod tempor incididunt ut labore et dolore magna aliqua.&lt;/font&gt;&lt;/p&gt;" style="text;html=1;strokeColor=none;fillColor=none;spacing=5;spacingTop=-20;whiteSpace=wrap;overflow=hidden;rounded=0;" vertex="1" parent="1">
          <mxGeometry x="266.25" y="540" width="190" height="70" as="geometry" />
        </mxCell>
        <mxCell id="4hjpOmQQZ08YqFkU7Iz2-175" value="&lt;h1&gt;&lt;font color=&quot;#ffffff&quot; style=&quot;font-size: 10px&quot;&gt;Special&lt;/font&gt;&lt;/h1&gt;&lt;p&gt;&lt;font color=&quot;#ffffff&quot; style=&quot;font-size: 7px&quot;&gt;Lorem ipsum dolor sit amet, consectetur adipisicing elit, sed do eiusmod tempor incididunt ut labore et dolore magna aliqua.&lt;/font&gt;&lt;/p&gt;" style="text;html=1;strokeColor=none;fillColor=none;spacing=5;spacingTop=-20;whiteSpace=wrap;overflow=hidden;rounded=0;" vertex="1" parent="1">
          <mxGeometry x="266.25" y="610" width="190" height="90" as="geometry" />
        </mxCell>
        <mxCell id="4hjpOmQQZ08YqFkU7Iz2-176" value="&lt;h1&gt;&lt;font color=&quot;#ffffff&quot; style=&quot;font-size: 10px&quot;&gt;Ultimate&lt;/font&gt;&lt;/h1&gt;&lt;p&gt;&lt;font color=&quot;#ffffff&quot; style=&quot;font-size: 7px&quot;&gt;Lorem ipsum dolor sit amet, consectetur adipisicing elit, sed do eiusmod tempor incididunt ut labore et dolore magna aliqua.&lt;/font&gt;&lt;/p&gt;" style="text;html=1;strokeColor=none;fillColor=none;spacing=5;spacingTop=-20;whiteSpace=wrap;overflow=hidden;rounded=0;" vertex="1" parent="1">
          <mxGeometry x="265" y="700" width="190" height="90" as="geometry" />
        </mxCell>
        <mxCell id="4hjpOmQQZ08YqFkU7Iz2-177" value="&lt;h1&gt;&lt;font color=&quot;#ffffff&quot; style=&quot;font-size: 10px&quot;&gt;Passive&lt;/font&gt;&lt;/h1&gt;&lt;p&gt;&lt;font color=&quot;#ffffff&quot; style=&quot;font-size: 7px&quot;&gt;Lorem ipsum dolor sit amet, consectetur adipisicing elit, sed do eiusmod tempor incididunt ut labore et dolore magna aliqua.&lt;/font&gt;&lt;/p&gt;" style="text;html=1;strokeColor=none;fillColor=none;spacing=5;spacingTop=-20;whiteSpace=wrap;overflow=hidden;rounded=0;" vertex="1" parent="1">
          <mxGeometry x="265" y="790" width="190" height="90" as="geometry" />
        </mxCell>
        <mxCell id="4hjpOmQQZ08YqFkU7Iz2-178" value="" style="rounded=1;whiteSpace=wrap;html=1;fillColor=#f4b834;" vertex="1" parent="1">
          <mxGeometry x="483.25" y="510" width="212.5" height="410" as="geometry" />
        </mxCell>
        <mxCell id="4hjpOmQQZ08YqFkU7Iz2-179" value="" style="rounded=1;whiteSpace=wrap;html=1;fillColor=#000000;" vertex="1" parent="1">
          <mxGeometry x="493.25" y="520" width="192.5" height="390" as="geometry" />
        </mxCell>
        <mxCell id="4hjpOmQQZ08YqFkU7Iz2-180" value="&lt;h1 style=&quot;font-size: 10px&quot;&gt;&lt;font color=&quot;#ffffff&quot; style=&quot;font-size: 10px&quot;&gt;Basic&lt;/font&gt;&lt;/h1&gt;&lt;p&gt;&lt;font color=&quot;#ffffff&quot; style=&quot;font-size: 7px&quot;&gt;Lorem ipsum dolor sit amet, consectetur adipisicing elit, sed do eiusmod tempor incididunt ut labore et dolore magna aliqua.&lt;/font&gt;&lt;/p&gt;" style="text;html=1;strokeColor=none;fillColor=none;spacing=5;spacingTop=-20;whiteSpace=wrap;overflow=hidden;rounded=0;" vertex="1" parent="1">
          <mxGeometry x="494.5" y="540" width="190" height="70" as="geometry" />
        </mxCell>
        <mxCell id="4hjpOmQQZ08YqFkU7Iz2-181" value="&lt;h1&gt;&lt;font color=&quot;#ffffff&quot; style=&quot;font-size: 10px&quot;&gt;Special&lt;/font&gt;&lt;/h1&gt;&lt;p&gt;&lt;font color=&quot;#ffffff&quot; style=&quot;font-size: 7px&quot;&gt;Lorem ipsum dolor sit amet, consectetur adipisicing elit, sed do eiusmod tempor incididunt ut labore et dolore magna aliqua.&lt;/font&gt;&lt;/p&gt;" style="text;html=1;strokeColor=none;fillColor=none;spacing=5;spacingTop=-20;whiteSpace=wrap;overflow=hidden;rounded=0;" vertex="1" parent="1">
          <mxGeometry x="494.5" y="610" width="190" height="90" as="geometry" />
        </mxCell>
        <mxCell id="4hjpOmQQZ08YqFkU7Iz2-182" value="&lt;h1&gt;&lt;font color=&quot;#ffffff&quot; style=&quot;font-size: 10px&quot;&gt;Ultimate&lt;/font&gt;&lt;/h1&gt;&lt;p&gt;&lt;font color=&quot;#ffffff&quot; style=&quot;font-size: 7px&quot;&gt;Lorem ipsum dolor sit amet, consectetur adipisicing elit, sed do eiusmod tempor incididunt ut labore et dolore magna aliqua.&lt;/font&gt;&lt;/p&gt;" style="text;html=1;strokeColor=none;fillColor=none;spacing=5;spacingTop=-20;whiteSpace=wrap;overflow=hidden;rounded=0;" vertex="1" parent="1">
          <mxGeometry x="493.25" y="700" width="190" height="90" as="geometry" />
        </mxCell>
        <mxCell id="4hjpOmQQZ08YqFkU7Iz2-183" value="&lt;h1&gt;&lt;font color=&quot;#ffffff&quot; style=&quot;font-size: 10px&quot;&gt;Passive&lt;/font&gt;&lt;/h1&gt;&lt;p&gt;&lt;font color=&quot;#ffffff&quot; style=&quot;font-size: 7px&quot;&gt;Lorem ipsum dolor sit amet, consectetur adipisicing elit, sed do eiusmod tempor incididunt ut labore et dolore magna aliqua.&lt;/font&gt;&lt;/p&gt;" style="text;html=1;strokeColor=none;fillColor=none;spacing=5;spacingTop=-20;whiteSpace=wrap;overflow=hidden;rounded=0;" vertex="1" parent="1">
          <mxGeometry x="493.25" y="790" width="190" height="90" as="geometry" />
        </mxCell>
        <mxCell id="4hjpOmQQZ08YqFkU7Iz2-184" value="" style="rounded=1;whiteSpace=wrap;html=1;fillColor=#f4b834;" vertex="1" parent="1">
          <mxGeometry x="713.75" y="510" width="212.5" height="410" as="geometry" />
        </mxCell>
        <mxCell id="4hjpOmQQZ08YqFkU7Iz2-185" value="" style="rounded=1;whiteSpace=wrap;html=1;fillColor=#000000;" vertex="1" parent="1">
          <mxGeometry x="723.75" y="520" width="192.5" height="390" as="geometry" />
        </mxCell>
        <mxCell id="4hjpOmQQZ08YqFkU7Iz2-186" value="&lt;h1 style=&quot;font-size: 10px&quot;&gt;&lt;font color=&quot;#ffffff&quot; style=&quot;font-size: 10px&quot;&gt;Basic&lt;/font&gt;&lt;/h1&gt;&lt;p&gt;&lt;font color=&quot;#ffffff&quot; style=&quot;font-size: 7px&quot;&gt;Lorem ipsum dolor sit amet, consectetur adipisicing elit, sed do eiusmod tempor incididunt ut labore et dolore magna aliqua.&lt;/font&gt;&lt;/p&gt;" style="text;html=1;strokeColor=none;fillColor=none;spacing=5;spacingTop=-20;whiteSpace=wrap;overflow=hidden;rounded=0;" vertex="1" parent="1">
          <mxGeometry x="725" y="540" width="190" height="70" as="geometry" />
        </mxCell>
        <mxCell id="4hjpOmQQZ08YqFkU7Iz2-187" value="&lt;h1&gt;&lt;font color=&quot;#ffffff&quot; style=&quot;font-size: 10px&quot;&gt;Special&lt;/font&gt;&lt;/h1&gt;&lt;p&gt;&lt;font color=&quot;#ffffff&quot; style=&quot;font-size: 7px&quot;&gt;Lorem ipsum dolor sit amet, consectetur adipisicing elit, sed do eiusmod tempor incididunt ut labore et dolore magna aliqua.&lt;/font&gt;&lt;/p&gt;" style="text;html=1;strokeColor=none;fillColor=none;spacing=5;spacingTop=-20;whiteSpace=wrap;overflow=hidden;rounded=0;" vertex="1" parent="1">
          <mxGeometry x="725" y="610" width="190" height="90" as="geometry" />
        </mxCell>
        <mxCell id="4hjpOmQQZ08YqFkU7Iz2-188" value="&lt;h1&gt;&lt;font color=&quot;#ffffff&quot; style=&quot;font-size: 10px&quot;&gt;Ultimate&lt;/font&gt;&lt;/h1&gt;&lt;p&gt;&lt;font color=&quot;#ffffff&quot; style=&quot;font-size: 7px&quot;&gt;Lorem ipsum dolor sit amet, consectetur adipisicing elit, sed do eiusmod tempor incididunt ut labore et dolore magna aliqua.&lt;/font&gt;&lt;/p&gt;" style="text;html=1;strokeColor=none;fillColor=none;spacing=5;spacingTop=-20;whiteSpace=wrap;overflow=hidden;rounded=0;" vertex="1" parent="1">
          <mxGeometry x="723.75" y="700" width="190" height="90" as="geometry" />
        </mxCell>
        <mxCell id="4hjpOmQQZ08YqFkU7Iz2-189" value="&lt;h1&gt;&lt;font color=&quot;#ffffff&quot; style=&quot;font-size: 10px&quot;&gt;Passive&lt;/font&gt;&lt;/h1&gt;&lt;p&gt;&lt;font color=&quot;#ffffff&quot; style=&quot;font-size: 7px&quot;&gt;Lorem ipsum dolor sit amet, consectetur adipisicing elit, sed do eiusmod tempor incididunt ut labore et dolore magna aliqua.&lt;/font&gt;&lt;/p&gt;" style="text;html=1;strokeColor=none;fillColor=none;spacing=5;spacingTop=-20;whiteSpace=wrap;overflow=hidden;rounded=0;" vertex="1" parent="1">
          <mxGeometry x="723.75" y="790" width="190" height="90" as="geometry" />
        </mxCell>
        <mxCell id="4hjpOmQQZ08YqFkU7Iz2-190" value="" style="rounded=1;whiteSpace=wrap;html=1;fillColor=#f4b834;" vertex="1" parent="1">
          <mxGeometry x="943.75" y="510" width="212.5" height="410" as="geometry" />
        </mxCell>
        <mxCell id="4hjpOmQQZ08YqFkU7Iz2-191" value="" style="rounded=1;whiteSpace=wrap;html=1;fillColor=#000000;" vertex="1" parent="1">
          <mxGeometry x="953.75" y="520" width="192.5" height="390" as="geometry" />
        </mxCell>
        <mxCell id="4hjpOmQQZ08YqFkU7Iz2-192" value="&lt;h1 style=&quot;font-size: 10px&quot;&gt;&lt;font color=&quot;#ffffff&quot; style=&quot;font-size: 10px&quot;&gt;Basic&lt;/font&gt;&lt;/h1&gt;&lt;p&gt;&lt;font color=&quot;#ffffff&quot; style=&quot;font-size: 7px&quot;&gt;Lorem ipsum dolor sit amet, consectetur adipisicing elit, sed do eiusmod tempor incididunt ut labore et dolore magna aliqua.&lt;/font&gt;&lt;/p&gt;" style="text;html=1;strokeColor=none;fillColor=none;spacing=5;spacingTop=-20;whiteSpace=wrap;overflow=hidden;rounded=0;" vertex="1" parent="1">
          <mxGeometry x="955" y="540" width="190" height="70" as="geometry" />
        </mxCell>
        <mxCell id="4hjpOmQQZ08YqFkU7Iz2-193" value="&lt;h1&gt;&lt;font color=&quot;#ffffff&quot; style=&quot;font-size: 10px&quot;&gt;Special&lt;/font&gt;&lt;/h1&gt;&lt;p&gt;&lt;font color=&quot;#ffffff&quot; style=&quot;font-size: 7px&quot;&gt;Lorem ipsum dolor sit amet, consectetur adipisicing elit, sed do eiusmod tempor incididunt ut labore et dolore magna aliqua.&lt;/font&gt;&lt;/p&gt;" style="text;html=1;strokeColor=none;fillColor=none;spacing=5;spacingTop=-20;whiteSpace=wrap;overflow=hidden;rounded=0;" vertex="1" parent="1">
          <mxGeometry x="955" y="610" width="190" height="90" as="geometry" />
        </mxCell>
        <mxCell id="4hjpOmQQZ08YqFkU7Iz2-194" value="&lt;h1&gt;&lt;font color=&quot;#ffffff&quot; style=&quot;font-size: 10px&quot;&gt;Ultimate&lt;/font&gt;&lt;/h1&gt;&lt;p&gt;&lt;font color=&quot;#ffffff&quot; style=&quot;font-size: 7px&quot;&gt;Lorem ipsum dolor sit amet, consectetur adipisicing elit, sed do eiusmod tempor incididunt ut labore et dolore magna aliqua.&lt;/font&gt;&lt;/p&gt;" style="text;html=1;strokeColor=none;fillColor=none;spacing=5;spacingTop=-20;whiteSpace=wrap;overflow=hidden;rounded=0;" vertex="1" parent="1">
          <mxGeometry x="953.75" y="700" width="190" height="90" as="geometry" />
        </mxCell>
        <mxCell id="4hjpOmQQZ08YqFkU7Iz2-195" value="&lt;h1&gt;&lt;font color=&quot;#ffffff&quot; style=&quot;font-size: 10px&quot;&gt;Passive&lt;/font&gt;&lt;/h1&gt;&lt;p&gt;&lt;font color=&quot;#ffffff&quot; style=&quot;font-size: 7px&quot;&gt;Lorem ipsum dolor sit amet, consectetur adipisicing elit, sed do eiusmod tempor incididunt ut labore et dolore magna aliqua.&lt;/font&gt;&lt;/p&gt;" style="text;html=1;strokeColor=none;fillColor=none;spacing=5;spacingTop=-20;whiteSpace=wrap;overflow=hidden;rounded=0;" vertex="1" parent="1">
          <mxGeometry x="953.75" y="790" width="190" height="90" as="geometry" />
        </mxCell>
        <mxCell id="4hjpOmQQZ08YqFkU7Iz2-196" value="&lt;font color=&quot;#f4b834&quot; style=&quot;font-size: 26px&quot;&gt;Marvel Strike Force Team Builder&lt;/font&gt;" style="text;html=1;strokeColor=none;fillColor=none;align=center;verticalAlign=middle;whiteSpace=wrap;rounded=0;" vertex="1" parent="1">
          <mxGeometry x="30" y="-60" width="1120" height="70" as="geometry" />
        </mxCell>
      </root>
    </mxGraphModel>
  </diagram>
</mxfile>
